<?xml version="1.0" encoding="utf-8"?>
<!-- Generator: Adobe Illustrator 27.2.0, SVG Export Plug-In . SVG Version: 6.00 Build 0)  -->
<svg version="1.1" id="Calque_1" xmlns="http://www.w3.org/2000/svg" xmlns:xlink="http://www.w3.org/1999/xlink" x="0px" y="0px"
	 viewBox="0 0 24 24" style="enable-background:new 0 0 24 24;" xml:space="preserve">
<style type="text/css">
	.st0{fill:none;}
</style>
<path class="st0" d="M0,24h24V0H0V24z"/>
<path d="M2.5,4.4l1.3-0.6v9L1.4,7C1,5.9,1.5,4.8,2.5,4.4z M22,8.1l-5,12c-0.3,0.8-1,1.2-1.8,1.2c-0.3,0-0.5,0-0.8-0.1L7.1,18
	c-0.8-0.3-1.2-1-1.2-1.8c0-0.3,0-0.5,0.2-0.8l5-12c0.3-0.8,1.1-1.2,1.8-1.2c0.3,0,0.5,0,0.8,0.1l7.4,3C22,5.9,22.5,7,22,8.1z
	 M5.9,4.2c0-1.1,0.9-2,2-2h1.4l-3.4,8.3V4.2z"/>
</svg>
