<?xml version="1.0" encoding="utf-8"?>
<!-- Generator: Adobe Illustrator 27.2.0, SVG Export Plug-In . SVG Version: 6.00 Build 0)  -->
<svg version="1.1" id="Calque_1" xmlns="http://www.w3.org/2000/svg" xmlns:xlink="http://www.w3.org/1999/xlink" x="0px" y="0px"
	 viewBox="0 0 24 24" style="enable-background:new 0 0 24 24;" xml:space="preserve">
<style type="text/css">
	.st0{fill:none;}
</style>
<path class="st0" d="M0,0h24v24H0V0z"/>
<path class="st0" d="M0,0h24v24H0V0z"/>
<path d="M4.5,18h3C8.3,18,9,17.3,9,16.5l0,0C9,15.7,8.3,15,7.5,15h-3C3.7,15,3,15.7,3,16.5l0,0C3,17.3,3.7,18,4.5,18z M3,6.5L3,6.5
	C3,7.3,3.7,8,4.5,8h15C20.3,8,21,7.3,21,6.5l0,0C21,5.7,20.3,5,19.5,5h-15C3.7,5,3,5.7,3,6.5z M4.5,13h9c0.8,0,1.5-0.7,1.5-1.5l0,0
	c0-0.8-0.7-1.5-1.5-1.5h-9C3.7,10,3,10.7,3,11.5l0,0C3,12.3,3.7,13,4.5,13z"/>
<path d="M20,16.5v-6c0-0.3-0.2-0.5-0.5-0.5h-1c-0.3,0-0.5,0.2-0.5,0.5v6c0,0.3-0.2,0.5-0.5,0.5h-1.3c-0.5,0-0.7,0.6-0.4,0.9l2.8,2.8
	c0.2,0.2,0.5,0.2,0.7,0l2.8-2.8c0.3-0.3,0.1-0.9-0.4-0.9h-1.3C20.3,17,20,16.8,20,16.5z"/>
</svg>
