<svg xmlns="http://www.w3.org/2000/svg" xml:space="preserve" width="1000mm" height="1000mm" viewBox="0 0 1000 1000"><path d="M49.424 829.092h922.518v129.776H49.424z" style="fill:#000;stroke-width:3.68199"/><path d="M98.307 325.33h87.677v562.464H98.307zM349.493 305.136h87.677V867.6h-87.677zM560.217 308.837h87.677v562.464h-87.677zM822.144 311.718h87.677v562.464h-87.677z" style="fill:#000;stroke-width:3.68199"/><path d="M387.063 49.178C274.855 124.088 49.37 272.409 49.37 272.409s.01 37.179.01 55.76h903.022v-55.76C844.852 197.915 737.294 123.663 629.738 49.178Z" style="fill:#000;stroke-width:3.68199"/><rect width="79.496" height="81.525" x="302.964" y="780.13" ry="0" style="fill:#000;stroke-width:3.68199"/><rect width="79.496" height="81.525" x="307.744" y="313.848" ry="0" style="fill:#000;stroke-width:3.68199"/><rect width="79.496" height="81.525" x="620.494" y="307.566" ry="0" style="fill:#000;stroke-width:3.68199"/><rect width="187.981" height="81.525" x="49.379" y="310.467" ry="0" style="fill:#000;stroke-width:5.66194"/><rect width="187.981" height="81.525" x="764.421" y="304.55" ry="0" style="fill:#000;stroke-width:5.66194"/><rect width="79.496" height="81.525" x="608.267" y="777.523" ry="0" style="fill:#000;stroke-width:3.68199"/></svg>
