<?xml version="1.0" encoding="utf-8"?>
<!-- Generator: Adobe Illustrator 25.3.1, SVG Export Plug-In . SVG Version: 6.00 Build 0)  -->
<svg version="1.1" id="Calque_1" xmlns="http://www.w3.org/2000/svg" xmlns:xlink="http://www.w3.org/1999/xlink" x="0px" y="0px"
	 viewBox="0 0 753 225" style="enable-background:new 0 0 753 225;" xml:space="preserve">
<style type="text/css">
	.st0{fill:#000000;}
    .st1{fill:#0000aa;}
</style>
<g id="Repères">
	<path class="st0" d="M17.5,205.3v-26.2h9v26.2c0,4.8,3.4,8.3,7.9,8.3s7.9-3.5,7.9-8.3v-26.2h9v26.2c0,9.8-7.2,17.1-16.9,17.1
		S17.5,215.2,17.5,205.3z"/>
	<path class="st0" d="M87,204.9v17h-8.6V206c0-3.9-2.4-6.5-5.9-6.5c-3.5,0-5.9,2.6-5.9,6.5v15.9h-8.6v-30h8.6v3.9
		c1.7-2.8,4.8-4.5,8.1-4.5C82.4,191.3,87,196.4,87,204.9z"/>
	<path class="st0" d="M92.3,182.6c0.1-2.9,2.6-5.2,5.5-5c2.7,0.1,4.9,2.3,5,5c-0.1,2.9-2.6,5.2-5.5,5
		C94.6,187.6,92.5,185.4,92.3,182.6z M93.3,191.9h8.6v30h-8.6V191.9z"/>
	<path class="st0" d="M137.9,191.9l-12.4,30h-7.3l-12.5-30h9.3l6.8,18.3l6.7-18.3H137.9z"/>
	<path class="st0" d="M168.8,208.9h-22.3c0.5,3.8,3.8,6.6,7.6,6.4c3.4,0,5.5-1.5,6-3.5h8.4c-1,6.5-6.7,10.7-14.2,10.7
		c-8.6,0.1-15.7-6.8-15.8-15.4c0-0.1,0-0.3,0-0.4c-0.1-8.5,6.7-15.4,15.2-15.5c0.1,0,0.3,0,0.4,0c8.1-0.1,14.7,6.4,14.8,14.4
		c0,0.1,0,0.1,0,0.2C169,206.9,169,207.9,168.8,208.9z M160,203.4c-0.4-3.1-3.1-5.4-6.2-5.2c-3.3-0.2-6.2,2-6.9,5.2H160z"/>
	<path class="st0" d="M193.3,191.6v7.8c-1-0.3-2.1-0.4-3.1-0.4c-4.2,0-7.5,2.5-7.5,8.1v14.8h-8.6v-30h8.6v3.5c1.7-2.6,4.7-4.1,7.8-4
		C191.4,191.3,192.4,191.4,193.3,191.6z"/>
	<path class="st0" d="M195.2,211.7h8.3c0.2,2,2.3,3.4,5.2,3.4c2.6,0,4-0.9,4-2.3c0-4.9-16.9-0.5-16.9-11.7c0-5.6,4.5-9.8,11.9-9.8
		c6.5,0,12.3,3.4,13,10h-8.7c-0.1-1.5-1.8-2.9-4.5-2.9c-2,0-3.4,0.7-3.4,2.1c0,4.6,16.9-0.2,16.9,12.3c0,5.5-5.2,9.7-12,9.7
		C201.2,222.5,195.8,218.5,195.2,211.7z"/>
	<path class="st0" d="M224.8,182.6c0.1-2.9,2.6-5.2,5.5-5c2.7,0.1,4.9,2.3,5,5c-0.1,2.9-2.6,5.2-5.5,5
		C227.1,187.6,224.9,185.4,224.8,182.6z M225.8,191.9h8.6v30h-8.6V191.9z"/>
	<path class="st0" d="M259.9,200.1h-7.4v9.5c0,3.2,2.2,4.6,5.2,4.6c0.7,0,1.5-0.1,2.2-0.3v7.9c-1.4,0.3-2.8,0.5-4.2,0.5
		c-7.1,0-11.9-4.6-11.9-12.7v-9.6h-5.6v-8.2h5.6V184h8.6v7.9h7.4V200.1z"/>
	<path class="st0" d="M292.5,208.9h-22.3c0.5,3.8,3.8,6.6,7.6,6.4c3.4,0,5.5-1.5,6-3.5h8.4c-1,6.5-6.7,10.7-14.2,10.7
		c-8.6,0.1-15.7-6.8-15.8-15.4c0-0.1,0-0.3,0-0.4c-0.1-8.5,6.7-15.4,15.2-15.5c0.1,0,0.3,0,0.4,0c8.1-0.1,14.7,6.4,14.8,14.4
		c0,0.1,0,0.1,0,0.2C292.7,206.9,292.6,207.9,292.5,208.9z M283.7,203.4c-0.4-3.1-3.1-5.4-6.2-5.2c-3.3-0.2-6.2,2-6.9,5.2H283.7z
		 M288.6,179.1l-7.5,9.5h-7.9l5.3-9.5H288.6z"/>
	<path class="st0" d="M332.7,179.1h8.6v42.8h-8.6v-4.3c-2.1,3.2-5.7,5-9.5,4.9c-7.8,0-13.9-7-13.9-15.6c0-8.6,6.2-15.6,13.9-15.6
		c3.8-0.2,7.4,1.7,9.5,4.9V179.1z M332.7,206.9c0.1-4.2-3.2-7.6-7.4-7.6c-4.2-0.1-7.6,3.2-7.6,7.4c-0.1,4.2,3.2,7.6,7.4,7.6
		c0,0,0.1,0,0.1,0c4.1,0.1,7.4-3.2,7.5-7.2C332.7,207,332.7,206.9,332.7,206.9z"/>
	<path class="st0" d="M376.2,208.9h-22.3c0.5,3.8,3.8,6.6,7.6,6.4c3.4,0,5.5-1.5,6-3.5h8.4c-1,6.5-6.7,10.7-14.2,10.7
		c-8.6,0.1-15.7-6.8-15.8-15.4c0-0.1,0-0.3,0-0.4c-0.1-8.5,6.7-15.4,15.2-15.5c0.1,0,0.3,0,0.4,0c8.1-0.1,14.7,6.4,14.8,14.4
		c0,0.1,0,0.1,0,0.2C376.4,206.9,376.3,207.9,376.2,208.9z M367.4,203.4c-0.4-3.1-3.1-5.4-6.2-5.2c-3.3-0.2-6.2,2-6.9,5.2H367.4z"/>
	<path class="st0" d="M394.3,179.1h7.7l17.4,24.9v-24.9h9v42.8h-7.6L403.4,197v24.9h-9V179.1z"/>
	<path class="st0" d="M463.9,208.9h-22.3c0.5,3.8,3.8,6.6,7.6,6.4c3.4,0,5.5-1.5,6-3.5h8.4c-1,6.5-6.7,10.7-14.2,10.7
		c-8.6,0.1-15.7-6.8-15.8-15.4c0-0.1,0-0.3,0-0.4c-0.1-8.5,6.7-15.4,15.2-15.5c0.1,0,0.3,0,0.4,0c8.1-0.1,14.7,6.4,14.8,14.4
		c0,0.1,0,0.1,0,0.2C464.1,206.9,464,207.9,463.9,208.9z M455.1,203.4c-0.4-3.1-3.1-5.4-6.2-5.2c-3.3-0.2-6.2,2-6.9,5.2H455.1z"/>
	<path class="st0" d="M489.6,191.9h8.6v30h-8.6v-4c-1.7,2.9-4.8,4.6-8.1,4.6c-7.7,0-12.3-5.2-12.3-13.7v-16.9h8.6v15.8
		c0,4,2.3,6.5,5.9,6.5s5.9-2.6,5.9-6.5V191.9z"/>
	<path class="st0" d="M503.3,206.9c-0.2-8.4,6.5-15.4,14.9-15.6c0.2,0,0.4,0,0.7,0c7.5,0,13.9,5.1,14.7,12h-8.7
		c-0.6-2.2-3.1-3.8-5.9-3.8c-4.1,0-7.4,3.3-7.4,7.4c0,4.1,3.3,7.4,7.4,7.4c2.9,0,5.4-1.7,6-4h8.7c-0.7,7.2-7.1,12.3-14.7,12.3
		c-8.4,0.2-15.4-6.5-15.6-14.9C503.3,207.4,503.3,207.1,503.3,206.9z"/>
	<path class="st0" d="M567.4,204.9v17h-8.6V206c0-3.9-2.4-6.5-5.9-6.5s-5.9,2.6-5.9,6.5v15.9h-8.6v-42.8h8.6v16.7
		c1.7-2.8,4.8-4.5,8.1-4.5C562.7,191.3,567.4,196.4,567.4,204.9z"/>
	<path class="st0" d="M595.9,191.9h8.6v30h-8.6v-4.3c-2.1,3.2-5.7,5-9.5,4.9c-7.8,0-13.9-7-13.9-15.6c0-8.6,6.2-15.6,13.9-15.6
		c3.8-0.2,7.4,1.7,9.5,4.9V191.9z M590.8,184.2l-3,4.2h-7.6l5.9-9.5h9.4l6,9.5h-7.6L590.8,184.2z M595.9,206.9
		c0.1-4.2-3.2-7.6-7.4-7.6c-4.2-0.1-7.6,3.2-7.6,7.4c-0.1,4.2,3.2,7.6,7.4,7.6c0,0,0.1,0,0.1,0c4.1,0.1,7.4-3.2,7.5-7.2
		C595.9,207,595.9,206.9,595.9,206.9L595.9,206.9z"/>
	<path class="st0" d="M629.9,200.1h-7.4v9.5c0,3.2,2.2,4.6,5.2,4.6c0.7,0,1.5-0.1,2.2-0.2v7.9c-1.4,0.3-2.8,0.5-4.2,0.5
		c-7.1,0-11.8-4.6-11.8-12.7v-9.6h-5.6v-8.2h5.6V184h8.6v7.9h7.4V200.1z"/>
	<path class="st0" d="M662.5,208.9h-22.3c0.5,3.8,3.8,6.6,7.6,6.4c3.4,0,5.5-1.5,6-3.5h8.4c-1,6.5-6.7,10.7-14.2,10.7
		c-8.6,0.1-15.7-6.8-15.8-15.4c0-0.1,0-0.3,0-0.4c-0.1-8.5,6.7-15.4,15.2-15.5c0.1,0,0.3,0,0.4,0c8.1-0.1,14.7,6.4,14.8,14.4
		c0,0.1,0,0.1,0,0.2C662.7,206.9,662.6,207.9,662.5,208.9z M653.7,203.4c-0.4-3.1-3.1-5.3-6.2-5.2c-3.3-0.2-6.2,2-6.9,5.2
		L653.7,203.4z"/>
	<path class="st0" d="M675.9,179.1v42.8h-8.6v-42.8H675.9z"/>
	<circle class="st1" cx="719.2" cy="28" r="25.4"/>
	<path class="st0" d="M148.3,5.5v144.3h-41.4v-19.1c-8.8,14.1-22.3,22-39.1,22c-37,0-59.4-25-59.4-65.8V5.5h41.4v76.1
		c0,19.1,11.2,31.4,28.5,31.4c17.1,0,28.5-12.3,28.5-31.4V5.5H148.3z"/>
	<path class="st0" d="M307,68.1v81.7h-41.4V73.4c0-18.8-11.5-31.1-28.5-31.1c-17.3,0-28.5,12.3-28.5,31.1v76.4h-41.4V5.5h41.4v18.8
		c9.1-13.8,22.6-21.7,39.1-21.7C284.7,2.5,307,27.2,307,68.1"/>
	<rect x="325.8" y="5.5" class="st0" width="41.4" height="144.3"/>
	<path class="st0" d="M526.2,68.1v81.7h-41.4V73.4c0-18.8-11.5-31.1-28.5-31.1c-17.3,0-28.5,12.3-28.5,31.1v76.4h-41.4V5.5h41.4
		v18.8c9.1-13.8,22.6-21.7,39.1-21.7C503.9,2.5,526.2,27.2,526.2,68.1"/>
	<path class="st0" d="M684,87.5H576.8c2.9,18.8,17.3,30.9,36.7,30.9c16.2,0,26.4-7.1,28.8-17h40.6c-4.7,31.1-32,51.4-68.2,51.4
		c-42.6,0-75.8-33.2-75.8-75.8c0-42,32.9-74.4,74.9-74.4c39.1,0,71.1,30.6,71.1,70.2C684.9,77.7,684.6,82.6,684,87.5 M641.7,61
		c-1.2-14.7-14.4-25-29.7-25c-15.9,0-28.2,7.9-33.2,25H641.7z"/>
</g>
</svg>
