<svg xmlns="http://www.w3.org/2000/svg" viewBox="0 0 650 300"><defs><style>.cls-1{fill:#fff;stroke:#a55342;stroke-width:8px;}.cls-1,.cls-3{stroke-miterlimit:10;}.cls-2{fill:#8caada;}.cls-3{fill:none;stroke:#1d1d1b;stroke-width:11px;}.cls-4{fill:#1d1d1b;}.cls-5{fill:#a55342;}</style></defs><g id="Complet"><path class="cls-1" d="M14.44,72.5c3.42-7.15,8.4-13,14.44-15.94,6.34-3.07,7.52-2,27.59-5.73A319.9,319.9,0,0,1,88.85,46c10.93-.89,15.42-1.45,21-.34s10.71,3.12,13.89,6.21c5.93,5.79,25.6,41,7.54,62.3-5.14,6.07-10.62,11-6.83,18,4.13,7.66,4,4.27,10.39,16.25,4.57,8.56-7.44,12.37-11.6,9.39-8.18-5.86-12.33-10.95-16.36-13.8-3.36-2.38-44,1.33-66.92-5-17.28-4.8-28.17-23.59-28.83-44.42C11,89.87,10.16,81.46,14.44,72.5Z"/><ellipse class="cls-2" cx="74.06" cy="94.64" rx="31.14" ry="30.28"/><circle class="cls-3" cx="73.89" cy="94.85" r="34.07"/><circle class="cls-4" cx="73.89" cy="94.85" r="17.23"/><path class="cls-5" d="M145.49,173.82s.08-8,.53-11.86c.48-4.06,4.63-5.8,8.61-5.21a6.79,6.79,0,0,1,6,6.34c.32,3,.1,6.17.18,10.79,9,0,18.14,0,26.89,0a82.08,82.08,0,0,1,9.42.23c4,.49,7.21,2.8,7.34,6.85.13,4.21-3.26,6.74-7.18,6.83-7.46.16-14.39-.12-21.73-.05-7.6.07-14.43.1-14.43.1s-.18,8-.26,14.14c-.11,8.83,0,17.67,0,26.5,0,5.95,2.64,8.68,8.58,11,7.63,2.94,17.34-.71,20.28-7.09,2.25-4.87,3.76-10.82,11.12-7.84,7,2.83,4.37,9.64,1.83,15-5.48,11.69-19.39,17.47-34.9,14.56-13.26-2.49-21.6-11.21-22.14-24.54s-.26-28.71-.26-41.51c-5.48-.11-9.34.15-13.35.08-5.69-.1-13.08.73-12.71-7.55s7.91-6.59,13.47-6.73C135.94,173.83,145.49,173.82,145.49,173.82Z"/><path class="cls-5" d="M551.5,201.65c1.3-9.94-3.26-13.15-10.69-13.43-6.82-.25-13.68.19-20.48-.32-4.25-.33-8.77-2.07-8.2-7.43.42-3.94,3.74-6.35,7.83-6.4,8.93-.09,18-.71,26.75.5,12.36,1.69,20.09,11,20.66,23.89.47,10.4.41,20.83,0,31.23-.41,10.81-5.44,18.91-16.22,22.46-12.66,4.18-25.19,4.1-35.49-5.2-8.58-7.73-9.63-18.16-6.22-28.81,3.32-10.36,11-15.9,22.31-16.43C538,201.41,544.25,201.65,551.5,201.65Zm-13.83,12.87c-9.69-.1-14.31,3.58-14.33,12.25,0,10,2.91,14.77,14.33,14.83,11,.05,14.44-4.13,14.44-13.18C552.11,219.12,547.83,214.62,537.67,214.52Z"/><path class="cls-5" d="M340.77,226.74c-.73,8.42,3.61,12.56,10.52,12.78s13.46-.08,20.26.13c4.63.14,8.72,2.57,8.58,7.55-.14,4.78-4,7.08-8.72,7.13-7.84.08-14.83.36-23.59.25-14.11-.19-21.81-11.59-22.19-26q-.37-14.78,0-29.55c.34-12.28,5.8-19.65,16.76-23.47,13.06-4.55,29.09-1.39,36.4,7.19,6.74,7.91,8.24,21.17,3.12,30.77-4.5,8.45-11.68,12.86-21.47,13.21C354.26,227,347.41,226.54,340.77,226.74Zm14.68-13c9.95-.16,14.79-5,14.29-14.19-.45-8.6-4.31-11.56-14.95-11.49s-13.9,2.81-14,12.12C340.64,209.88,345,213.9,355.45,213.73Z"/><path class="cls-5" d="M436,174h9.45c4.73,0,8.95,2,9.2,6.65.33,6-4.89,7.2-9.81,7.47-4.18.24-8.39,0-12.59.09a81.74,81.74,0,0,0-9.4.49c-4.7.62-7.54,3.33-8,8.15a8.74,8.74,0,0,0,6.46,9.58c3.86,1.22,8.23,1,12.38,1.22,14.57.87,24.83,10.08,25.09,22.62.24,11.64-9.36,23.82-22.7,24.36-8.15.32-15.65-.17-23.52-.19-4.74,0-8.92-2.4-9.1-6.88-.23-5.69,4.55-7.52,9.79-7.55,6.29-.05,12.59,0,18.88-.1,5.76-.09,10.45-1.87,11.19-8.41.64-5.59-3.66-9.82-10.91-10.66-3.11-.37-6.3.05-9.43-.16-13.26-.9-23.24-10.47-23.58-22.52-.32-11.19,8.58-21.69,20.89-23.69,5.11-.83,10.46-.14,15.7-.14Z"/><path class="cls-5" d="M254,221c0-7.8-.49-15.64.11-23.4,1-12.59,9.31-21.26,21.54-23.41,16.28-2.86,29.66,2.37,35.22,13.91a24.68,24.68,0,0,1,2.36,7.32c.61,4.66-1.2,8.25-6.17,9.31-4.39.93-7.82-1.66-8.33-5.33-1-7.57-4.86-10.82-12.33-11.29-13.06-.82-16.89,2.4-17.07,15.63-.16,11.44,0,22.89,0,34.34,0,3.12.12,6.25-.14,9.35-.32,4-2.22,6.92-6.56,7.42-5.45.64-8-3-8.26-7.34-.54-8.81-.16-17.67-.16-26.51Z"/><path class="cls-5" d="M490.78,215.75c0,10.33.07,20.66,0,31-.05,4.63-1.84,8.08-7.23,8.16s-7.43-3.84-7.53-8.07c-.37-15.49-.23-31-.27-46.48,0-5.68-.13-11.37,0-17,.15-5,1.55-9.59,7.67-9.65s7.43,4.37,7.4,9.55c-.08,10.85,0,21.7,0,32.55Z"/><path class="cls-5" d="M221.13,214.27c0-10.33-.06-20.67,0-31,0-5.11,1.74-9.6,7.71-9.63s7.62,4.27,7.6,9.55c0,20.66,0,41.32,0,62,0,5-1.34,9.58-7.51,9.64s-7.61-4.67-7.71-9.56C221,234.93,221.13,224.6,221.13,214.27Z"/><path class="cls-5" d="M616.21,173.51h9.45c4.73,0,8.94,2,9.2,6.66.33,6-4.9,7.19-9.81,7.47-4.18.24-8.39,0-12.59.08a84.36,84.36,0,0,0-9.41.49c-4.69.63-7.54,3.33-8,8.16s2.32,8.27,6.46,9.58c3.86,1.22,8.22,1,12.37,1.22,14.58.87,24.83,10.08,25.1,22.61.24,11.64-9.37,23.83-22.7,24.36-8.15.33-15.65-.17-23.52-.19-4.74,0-8.92-2.4-9.1-6.88-.23-5.69,4.55-7.51,9.78-7.55,6.3,0,12.6,0,18.89-.09,5.76-.09,10.45-1.87,11.19-8.41.64-5.59-3.66-9.82-10.91-10.67-3.11-.36-6.3.05-9.44-.16-13.26-.89-23.23-10.47-23.58-22.51-.32-11.19,8.59-21.7,20.9-23.69,5.11-.83,10.46-.14,15.7-.14Z"/></g></svg>