<?xml version="1.0" encoding="utf-8"?>
<!-- Generator: Adobe Illustrator 16.0.0, SVG Export Plug-In . SVG Version: 6.00 Build 0)  -->
<!DOCTYPE svg PUBLIC "-//W3C//DTD SVG 1.1//EN" "http://www.w3.org/Graphics/SVG/1.1/DTD/svg11.dtd">
<svg version="1.1" id="Layer_1" xmlns="http://www.w3.org/2000/svg" xmlns:xlink="http://www.w3.org/1999/xlink" x="0px" y="0px"
	 width="157px" height="101px" viewBox="0 0 157 101" enable-background="new 0 0 157 101" xml:space="preserve">
<path fill="#185384" d="M71.656,59.797h13.458V17.368H71.656V59.797z M53.978,17.525c-4.91,0-10.45,2.615-12.902,6.81h-0.161
	l0.01-5.44c0,0.007,0,0.014,0,0.025c0-0.014,0-0.025,0-0.039c0-0.054,0-0.112,0-0.165c0-0.423,0-0.857,0-1.348H27.467v23.351
	c0,7.282-4.435,9.186-7.361,9.186c-4.278,0-6.648-1.904-6.648-7.361V17.368H0v26.04C0,54.176,3.403,60.98,15.197,60.98
	c4.751,0,9.976-2.611,12.507-6.805h0.158v5.621h13.45V37.394c0-4.514,2.216-8.785,7.284-8.785c7.358,0,6.726,5.698,6.726,11.317
	v19.871H68.78V33.435C68.78,27.501,67.671,17.525,53.978,17.525z M40.925,18.92c-0.003,4.293-0.01,5.415-0.01,5.415
	S40.925,24.324,40.925,18.92z M71.645,14.438h13.468V0.971H71.645V14.438z"/>
<g>
	<defs>
		<rect id="SVGID_1_" y="0.971" width="156.815" height="99.969"/>
	</defs>
	<clipPath id="SVGID_2_">
		<use xlink:href="#SVGID_1_"  overflow="visible"/>
	</clipPath>
	<path clip-path="url(#SVGID_2_)" fill="#B1B3B6" d="M126.651,35.016h16.707c-0.241-4.585-3.486-8.386-8-8.386
		C130.61,26.63,127.444,30.033,126.651,35.016 M156.815,39.402v3.009l-0.004,0.125h-30.16c0.236,5.626,3.485,9.348,9.184,9.348
		c3.244,0,6.411-1.506,7.678-4.517h12.589c-2.452,9.501-11.241,13.613-20.425,13.613c-9.355,0-16.62-3.945-20.138-11.028v9.845
		h-13.461V39.926c0-5.619,0.631-11.317-6.73-11.317c-4.564,0-6.816,3.467-7.22,7.452V23.844c2.586-3.91,7.886-6.319,12.605-6.319
		c11.041,0,13.902,6.484,14.59,12.113c3.583-7.39,11.268-12.113,20.035-12.113C148.959,17.525,156.281,26.981,156.815,39.402z"/>
	<path clip-path="url(#SVGID_2_)" fill="#185384" d="M40.935,81.841c0.465-0.174,0.835-0.47,1.112-0.883
		c0.281-0.406,0.42-0.9,0.42-1.461c0-0.336-0.057-0.66-0.174-0.97c-0.111-0.313-0.289-0.586-0.527-0.824
		c-0.237-0.239-0.541-0.43-0.907-0.58c-0.362-0.141-0.793-0.214-1.284-0.214h-3.519v8.338h1.531v-3.154h1.845l1.387,3.154h1.648
		L40.935,81.841 M40.597,80.404c-0.233,0.212-0.572,0.315-1.002,0.315h-2.019v-2.48h1.999c0.21,0,0.404,0.029,0.574,0.099
		c0.172,0.069,0.319,0.157,0.434,0.275c0.12,0.112,0.212,0.255,0.27,0.4c0.064,0.153,0.092,0.308,0.092,0.477
		C40.945,79.888,40.832,80.191,40.597,80.404z M2.975,85.15c0.408,0.165,0.883,0.25,1.421,0.25c0.543,0,1.019-0.085,1.426-0.25
		c0.407-0.161,0.749-0.395,1.027-0.686c0.273-0.293,0.477-0.643,0.615-1.064C7.6,82.992,7.67,82.541,7.67,82.049v-5.14H6.153v5.115
		c0,0.598-0.141,1.078-0.421,1.449c-0.287,0.367-0.728,0.55-1.336,0.55c-0.599,0-1.042-0.183-1.325-0.55
		c-0.281-0.371-0.423-0.852-0.423-1.449v-5.115H1.131v5.14c0,0.492,0.065,0.943,0.209,1.352c0.136,0.422,0.34,0.771,0.61,1.064
		C2.229,84.756,2.567,84.989,2.975,85.15z M16.052,85.247v-8.338h-1.491v5.646l-3.565-5.646h-1.61v8.338h1.491v-5.726l3.612,5.726
		H16.052z M18.008,85.247h1.536v-8.339h-1.536V85.247z M24.958,85.247l2.737-8.338h-1.53l-2.009,6.363l-2.024-6.363h-1.608
		l2.761,8.338H24.958z M34.611,83.873h-4.42v-2.284h3.889v-1.375h-3.889v-1.932h4.42v-1.373h-5.939v8.338h5.939V83.873z
		 M65.658,74.945l-0.66-1.071l-2.162,1.625l0.469,0.762L65.658,74.945z M51.24,85.247h1.538v-8.339H51.24V85.247z M85.154,78.282
		v-1.373h-5.938v8.338h5.938v-1.374h-4.416v-2.284h3.884v-1.375h-3.884v-1.932H85.154z M67.269,83.873h-4.423v-2.284h3.893v-1.375
		h-3.893v-1.932h4.423v-1.373h-5.94v8.338h5.94V83.873z M77.569,79.328c-0.07-0.282-0.173-0.552-0.301-0.809
		c-0.126-0.261-0.298-0.495-0.509-0.717c-0.277-0.291-0.612-0.513-1.019-0.664c-0.402-0.153-0.843-0.229-1.327-0.229h-3.24v8.338
		h3.24c0.484,0,0.925-0.079,1.327-0.23c0.407-0.154,0.742-0.377,1.019-0.663c0.211-0.222,0.383-0.461,0.509-0.725
		c0.128-0.264,0.231-0.533,0.301-0.82c0.068-0.277,0.115-0.566,0.136-0.863c0.018-0.287,0.029-0.581,0.029-0.876
		c0-0.284-0.011-0.578-0.029-0.874C77.684,79.902,77.637,79.614,77.569,79.328z M76.179,81.675c-0.007,0.216-0.029,0.424-0.07,0.631
		c-0.035,0.212-0.099,0.408-0.177,0.591c-0.074,0.188-0.192,0.357-0.339,0.501c-0.143,0.146-0.31,0.26-0.509,0.346
		c-0.197,0.086-0.421,0.13-0.671,0.13h-1.726v-5.591h1.726c0.25,0,0.474,0.045,0.671,0.136c0.199,0.08,0.366,0.195,0.509,0.333
		c0.147,0.151,0.265,0.318,0.339,0.508c0.078,0.185,0.142,0.382,0.177,0.591c0.041,0.205,0.063,0.413,0.07,0.624
		c0.011,0.21,0.014,0.411,0.014,0.596C76.193,81.255,76.19,81.458,76.179,81.675z M56.296,85.247h1.52v-6.928h2.467v-1.41h-6.454
		v1.41h2.467V85.247z M49.196,81.088c-0.203-0.199-0.446-0.356-0.725-0.479c-0.281-0.122-0.578-0.208-0.887-0.254
		c-0.276-0.038-0.579-0.074-0.913-0.105c-0.333-0.032-0.636-0.072-0.898-0.107c-0.252-0.04-0.455-0.133-0.613-0.275
		c-0.156-0.146-0.237-0.354-0.237-0.63c0-0.159,0.029-0.292,0.077-0.4c0.056-0.111,0.119-0.209,0.207-0.306
		c0.173-0.18,0.383-0.304,0.627-0.366c0.249-0.059,0.492-0.091,0.728-0.091c0.229,0,0.461,0.039,0.705,0.119
		c0.244,0.072,0.424,0.186,0.561,0.326c0.101,0.111,0.187,0.235,0.253,0.387c0.066,0.14,0.105,0.291,0.112,0.433h1.554
		c-0.008-0.349-0.089-0.672-0.245-0.975c-0.152-0.294-0.351-0.562-0.598-0.796c-0.282-0.267-0.632-0.472-1.046-0.604
		c-0.412-0.142-0.838-0.208-1.287-0.208c-0.491,0-0.956,0.077-1.39,0.236c-0.428,0.152-0.783,0.373-1.059,0.646
		c-0.217,0.218-0.394,0.469-0.527,0.741c-0.135,0.278-0.199,0.575-0.199,0.903c0,0.348,0.057,0.656,0.17,0.925
		c0.112,0.271,0.265,0.502,0.463,0.694c0.184,0.19,0.41,0.343,0.665,0.466c0.258,0.115,0.525,0.201,0.819,0.246
		c0.273,0.046,0.579,0.079,0.916,0.104c0.341,0.025,0.648,0.063,0.927,0.124c0.26,0.043,0.488,0.14,0.692,0.298
		c0.199,0.151,0.3,0.384,0.3,0.685c0,0.205-0.033,0.361-0.094,0.475c-0.064,0.113-0.143,0.225-0.236,0.325
		c-0.16,0.166-0.366,0.281-0.627,0.347c-0.255,0.066-0.53,0.102-0.82,0.102c-0.242,0-0.491-0.03-0.748-0.09
		c-0.256-0.058-0.469-0.173-0.653-0.358c-0.121-0.121-0.229-0.275-0.309-0.453c-0.081-0.178-0.124-0.368-0.124-0.569h-1.553
		c0,0.398,0.083,0.765,0.248,1.098c0.163,0.336,0.373,0.617,0.62,0.84c0.346,0.32,0.739,0.539,1.171,0.668
		c0.44,0.127,0.875,0.194,1.325,0.194c0.518,0,1.006-0.07,1.463-0.208c0.46-0.137,0.851-0.363,1.169-0.689
		c0.2-0.201,0.373-0.444,0.5-0.724c0.128-0.28,0.197-0.621,0.197-1.016c0-0.35-0.064-0.671-0.183-0.95
		C49.571,81.53,49.404,81.29,49.196,81.088z M40.935,81.841c0.465-0.174,0.835-0.47,1.112-0.883c0.281-0.406,0.42-0.9,0.42-1.461
		c0-0.336-0.057-0.66-0.174-0.97c-0.111-0.313-0.289-0.586-0.527-0.824c-0.237-0.239-0.541-0.43-0.907-0.58
		c-0.362-0.141-0.793-0.214-1.284-0.214h-3.519v8.338h1.531v-3.154h1.845l1.387,3.154h1.648L40.935,81.841z M40.597,80.404
		c-0.233,0.212-0.572,0.315-1.002,0.315h-2.019v-2.48h1.999c0.21,0,0.404,0.029,0.574,0.099c0.172,0.069,0.319,0.157,0.434,0.275
		c0.12,0.112,0.212,0.255,0.27,0.4c0.064,0.153,0.092,0.308,0.092,0.477C40.945,79.888,40.832,80.191,40.597,80.404z M2.975,85.15
		c0.408,0.165,0.883,0.25,1.421,0.25c0.543,0,1.019-0.085,1.426-0.25c0.407-0.161,0.749-0.395,1.027-0.686
		c0.273-0.293,0.477-0.643,0.615-1.064C7.6,82.992,7.67,82.541,7.67,82.049v-5.14H6.153v5.115c0,0.598-0.141,1.078-0.421,1.449
		c-0.287,0.367-0.728,0.55-1.336,0.55c-0.599,0-1.042-0.183-1.325-0.55c-0.281-0.371-0.423-0.852-0.423-1.449v-5.115H1.131v5.14
		c0,0.492,0.065,0.943,0.209,1.352c0.136,0.422,0.34,0.771,0.61,1.064C2.229,84.756,2.567,84.989,2.975,85.15z M16.052,85.247
		v-8.338h-1.491v5.646l-3.565-5.646h-1.61v8.338h1.491v-5.726l3.612,5.726H16.052z M18.008,85.247h1.536v-8.339h-1.536V85.247z
		 M24.958,85.247l2.737-8.338h-1.53l-2.009,6.363l-2.024-6.363h-1.608l2.761,8.338H24.958z M34.611,83.873h-4.42v-2.284h3.889
		v-1.375h-3.889v-1.932h4.42v-1.373h-5.939v8.338h5.939V83.873z M65.658,74.945l-0.66-1.071l-2.162,1.625l0.469,0.762L65.658,74.945
		z M51.24,85.247h1.538v-8.339H51.24V85.247z M85.154,78.282v-1.373h-5.938v8.338h5.938v-1.374h-4.416v-2.284h3.884v-1.375h-3.884
		v-1.932H85.154z M67.269,83.873h-4.423v-2.284h3.893v-1.375h-3.893v-1.932h4.423v-1.373h-5.94v8.338h5.94V83.873z M77.569,79.328
		c-0.07-0.282-0.173-0.552-0.301-0.809c-0.126-0.261-0.298-0.495-0.509-0.717c-0.277-0.291-0.612-0.513-1.019-0.664
		c-0.402-0.153-0.843-0.229-1.327-0.229h-3.24v8.338h3.24c0.484,0,0.925-0.079,1.327-0.23c0.407-0.154,0.742-0.377,1.019-0.663
		c0.211-0.222,0.383-0.461,0.509-0.725c0.128-0.264,0.231-0.533,0.301-0.82c0.068-0.277,0.115-0.566,0.136-0.863
		c0.018-0.287,0.029-0.581,0.029-0.876c0-0.284-0.011-0.578-0.029-0.874C77.684,79.902,77.637,79.614,77.569,79.328z M76.179,81.675
		c-0.007,0.216-0.029,0.424-0.07,0.631c-0.035,0.212-0.099,0.408-0.177,0.591c-0.074,0.188-0.192,0.357-0.339,0.501
		c-0.143,0.146-0.31,0.26-0.509,0.346c-0.197,0.086-0.421,0.13-0.671,0.13h-1.726v-5.591h1.726c0.25,0,0.474,0.045,0.671,0.136
		c0.199,0.08,0.366,0.195,0.509,0.333c0.147,0.151,0.265,0.318,0.339,0.508c0.078,0.185,0.142,0.382,0.177,0.591
		c0.041,0.205,0.063,0.413,0.07,0.624c0.011,0.21,0.014,0.411,0.014,0.596C76.193,81.255,76.19,81.458,76.179,81.675z
		 M56.296,85.247h1.52v-6.928h2.467v-1.41h-6.454v1.41h2.467V85.247z M49.196,81.088c-0.203-0.199-0.446-0.356-0.725-0.479
		c-0.281-0.122-0.578-0.208-0.887-0.254c-0.276-0.038-0.579-0.074-0.913-0.105c-0.333-0.032-0.636-0.072-0.898-0.107
		c-0.252-0.04-0.455-0.133-0.613-0.275c-0.156-0.146-0.237-0.354-0.237-0.63c0-0.159,0.029-0.292,0.077-0.4
		c0.056-0.111,0.119-0.209,0.207-0.306c0.173-0.18,0.383-0.304,0.627-0.366c0.249-0.059,0.492-0.091,0.728-0.091
		c0.229,0,0.461,0.039,0.705,0.119c0.244,0.072,0.424,0.186,0.561,0.326c0.101,0.111,0.187,0.235,0.253,0.387
		c0.066,0.14,0.105,0.291,0.112,0.433h1.554c-0.008-0.349-0.089-0.672-0.245-0.975c-0.152-0.294-0.351-0.562-0.598-0.796
		c-0.282-0.267-0.632-0.472-1.046-0.604c-0.412-0.142-0.838-0.208-1.287-0.208c-0.491,0-0.956,0.077-1.39,0.236
		c-0.428,0.152-0.783,0.373-1.059,0.646c-0.217,0.218-0.394,0.469-0.527,0.741c-0.135,0.278-0.199,0.575-0.199,0.903
		c0,0.348,0.057,0.656,0.17,0.925c0.112,0.271,0.265,0.502,0.463,0.694c0.184,0.19,0.41,0.343,0.665,0.466
		c0.258,0.115,0.525,0.201,0.819,0.246c0.273,0.046,0.579,0.079,0.916,0.104c0.341,0.025,0.648,0.063,0.927,0.124
		c0.26,0.043,0.488,0.14,0.692,0.298c0.199,0.151,0.3,0.384,0.3,0.685c0,0.205-0.033,0.361-0.094,0.475
		c-0.064,0.113-0.143,0.225-0.236,0.325c-0.16,0.166-0.366,0.281-0.627,0.347c-0.255,0.066-0.53,0.102-0.82,0.102
		c-0.242,0-0.491-0.03-0.748-0.09c-0.256-0.058-0.469-0.173-0.653-0.358c-0.121-0.121-0.229-0.275-0.309-0.453
		c-0.081-0.178-0.124-0.368-0.124-0.569h-1.553c0,0.398,0.083,0.765,0.248,1.098c0.163,0.336,0.373,0.617,0.62,0.84
		c0.346,0.32,0.739,0.539,1.171,0.668c0.44,0.127,0.875,0.194,1.325,0.194c0.518,0,1.006-0.07,1.463-0.208
		c0.46-0.137,0.851-0.363,1.169-0.689c0.2-0.201,0.373-0.444,0.5-0.724c0.128-0.28,0.197-0.621,0.197-1.016
		c0-0.35-0.064-0.671-0.183-0.95C49.571,81.53,49.404,81.29,49.196,81.088z M7.887,97.401l-4.504-7.141H1.345v10.545h1.889v-7.238
		l4.565,7.238h1.979V90.261H7.887V97.401z M52.712,88.978l0.59,0.844l2.14-1.243l2.14,1.243l0.598-0.844l-2.738-2.05L52.712,88.978z
		 M54.359,90.556l-3.596,10.25h1.931l0.683-2.02h4.197l0.679,2.02h2.009l-3.6-10.25H54.359z M53.974,97.043l1.499-4.443l1.501,4.443
		H53.974z M68.919,100.806h7.506v-1.738h-5.59V96.18h4.921v-1.736h-4.921v-2.438h5.59v-1.744h-7.506V100.806z M59.371,92.046h3.123
		v8.76h1.918v-8.76h3.122v-1.785h-8.163V92.046z M80.233,90.261h-1.918v10.545h6.811v-1.812h-4.893V90.261z M33.311,93.941
		c0.043-0.275,0.116-0.53,0.213-0.781c0.099-0.246,0.236-0.463,0.419-0.65c0.206-0.231,0.449-0.402,0.734-0.521
		c0.283-0.119,0.581-0.179,0.884-0.179c0.328,0,0.631,0.053,0.919,0.162c0.28,0.107,0.502,0.274,0.673,0.493
		c0.136,0.168,0.249,0.337,0.33,0.512c0.077,0.175,0.125,0.375,0.145,0.603h1.963c-0.049-0.417-0.154-0.82-0.313-1.222
		c-0.156-0.396-0.388-0.753-0.696-1.072c-0.398-0.404-0.859-0.707-1.38-0.911c-0.528-0.204-1.075-0.307-1.641-0.307
		c-0.563,0-1.101,0.099-1.61,0.292c-0.51,0.195-0.972,0.492-1.379,0.898c-0.287,0.287-0.518,0.59-0.692,0.907
		c-0.172,0.321-0.305,0.656-0.393,1.013c-0.09,0.358-0.147,0.733-0.177,1.126c-0.031,0.402-0.043,0.812-0.043,1.239
		c0,0.434,0.012,0.847,0.043,1.244c0.03,0.389,0.087,0.76,0.177,1.119c0.088,0.359,0.221,0.696,0.393,1.011
		c0.174,0.317,0.405,0.622,0.692,0.906c0.407,0.41,0.869,0.706,1.379,0.895c0.509,0.186,1.047,0.281,1.61,0.281
		c0.566,0,1.113-0.106,1.641-0.321c0.521-0.211,0.982-0.52,1.38-0.929c0.308-0.319,0.54-0.676,0.696-1.078
		c0.159-0.399,0.264-0.808,0.313-1.226h-1.963c-0.038,0.434-0.195,0.817-0.475,1.15c-0.171,0.219-0.393,0.382-0.673,0.495
		c-0.288,0.111-0.591,0.169-0.919,0.169c-0.303,0-0.601-0.061-0.884-0.179c-0.285-0.114-0.528-0.293-0.734-0.517
		c-0.183-0.191-0.32-0.409-0.419-0.655c-0.097-0.245-0.17-0.509-0.213-0.779c-0.047-0.271-0.072-0.542-0.083-0.824
		c-0.011-0.278-0.014-0.534-0.014-0.771c0-0.239,0.003-0.496,0.014-0.771C33.239,94.487,33.264,94.212,33.311,93.941z
		 M47.548,94.382H43.22v-4.121H41.3v10.545h1.92v-4.599h4.328v4.599h1.917V90.261h-1.917V94.382z M27.754,96.733
		c0,0.749-0.177,1.361-0.536,1.827c-0.355,0.469-0.916,0.7-1.676,0.7c-0.764,0-1.323-0.231-1.682-0.7
		c-0.36-0.466-0.536-1.078-0.536-1.827v-6.473h-1.92v6.499c0,0.629,0.086,1.197,0.262,1.718c0.174,0.523,0.432,0.968,0.78,1.342
		c0.347,0.372,0.782,0.658,1.298,0.866c0.511,0.208,1.113,0.314,1.798,0.314c0.682,0,1.282-0.106,1.798-0.314
		c0.515-0.208,0.945-0.494,1.293-0.866c0.346-0.374,0.608-0.818,0.778-1.342c0.174-0.521,0.264-1.089,0.264-1.718v-6.499h-1.921
		V96.733z M12.305,100.806h7.51v-1.738h-5.592V96.18h4.923v-1.736h-4.923v-2.438h5.592v-1.744h-7.51V100.806z"/>
</g>
</svg>
