<svg xmlns="http://www.w3.org/2000/svg" viewBox="0 0 650 300"><defs><style>.cls-1{fill:#fff;stroke:#a55342;stroke-width:17px;}.cls-1,.cls-3{stroke-miterlimit:10;}.cls-2{fill:#8caada;}.cls-3{fill:none;stroke:#1d1d1b;stroke-width:25px;}.cls-4{fill:#1d1d1b;}</style></defs><g id="Réduit-3" data-name="Réduit"><path class="cls-1" d="M157.16,79c8.28-17.48,20.32-31.81,34.92-38.95,15.32-7.5,18.16-5,66.68-14,3.74-.7,42.73-8.78,78.28-11.71,26.43-2.18,37.28-3.55,50.87-.83,13.38,2.68,25.89,7.6,33.56,15.17,14.33,14.14,61.88,100.08,18.22,152.19-12.42,14.82-25.66,26.85-16.49,44,10,18.73,9.65,10.44,25.12,39.7,11.05,20.9-18,30.21-28,22.94-19.79-14.31-29.83-26.75-39.55-33.7C372.59,248,274.35,257.05,219,241.53c-41.77-11.71-68.1-57.61-69.7-108.51C148.9,121.38,146.81,100.83,157.16,79Z"/><ellipse class="cls-2" cx="302.76" cy="131.49" rx="76" ry="74.68"/><ellipse class="cls-3" cx="302.35" cy="132.02" rx="83.17" ry="84.05"/><ellipse class="cls-4" cx="302.35" cy="132.02" rx="42.06" ry="42.5"/></g></svg>